<svg width="152" height="40" viewBox="0 0 152 40" fill="none" xmlns="http://www.w3.org/2000/svg">
<g clip-path="url(#clip0)">
<path d="M141.761 -1.55273e-06H9.53468C9.16798 -1.55273e-06 8.80568 -1.55275e-06 8.43995 0.00199845C8.1338 0.00399845 7.83009 0.00980845 7.521 0.0146984C6.84951 0.0226003 6.17961 0.0816747 5.5171 0.191408C4.85552 0.303531 4.21467 0.514914 3.61622 0.818408C3.0185 1.12447 2.47235 1.52217 1.99757 1.99707C1.5203 2.47064 1.12246 3.01801 0.81935 3.61816C0.5154 4.21711 0.304641 4.85894 0.19435 5.52148C0.0830109 6.18318 0.0230984 6.85252 0.01515 7.52348C0.00587 7.83008 0.00489 8.1377 0 8.44434V31.5586C0.00489 31.8691 0.00587 32.1699 0.01515 32.4805C0.0231008 33.1514 0.0830134 33.8207 0.19435 34.4824C0.304336 35.1453 0.515108 35.7875 0.81935 36.3867C1.12233 36.9849 1.52022 37.5301 1.99757 38.001C2.47054 38.478 3.01705 38.876 3.61622 39.1797C4.21467 39.484 4.85545 39.6966 5.5171 39.8105C6.17972 39.9194 6.84956 39.9785 7.521 39.9873C7.83009 39.9941 8.1338 39.998 8.43995 39.998C8.80567 40 9.168 40 9.53468 40H141.761C142.12 40 142.485 40 142.845 39.998C143.15 39.998 143.462 39.9941 143.767 39.9873C144.437 39.9789 145.106 39.9198 145.767 39.8105C146.431 39.6958 147.074 39.4833 147.675 39.1797C148.274 38.8758 148.82 38.4778 149.292 38.001C149.768 37.5282 150.167 36.9835 150.474 36.3867C150.776 35.7871 150.984 35.1449 151.093 34.4824C151.204 33.8206 151.266 33.1515 151.278 32.4805C151.282 32.1699 151.282 31.8691 151.282 31.5586C151.29 31.1953 151.29 30.834 151.29 30.4648V9.53613C151.29 9.16992 151.29 8.80664 151.282 8.44434C151.282 8.1377 151.282 7.83008 151.278 7.52344C151.266 6.85242 151.204 6.18323 151.093 5.52144C150.984 4.85928 150.775 4.2175 150.474 3.61812C149.856 2.41521 148.878 1.43606 147.675 0.818358C147.074 0.515606 146.431 0.304279 145.767 0.191358C145.106 0.0811412 144.437 0.0220462 143.767 0.0145984C143.462 0.00971845 143.15 0.00385845 142.845 0.00190845C142.485 -9.15527e-05 142.12 -9.15527e-05 141.761 -9.15527e-05L141.761 -1.55273e-06Z" fill="black"/>
<path d="M8.44483 39.125C8.14015 39.125 7.84283 39.1211 7.54054 39.1143C6.91432 39.1061 6.28957 39.0516 5.6714 38.9512C5.09499 38.8519 4.5366 38.6673 4.01466 38.4033C3.4975 38.1415 3.02581 37.7983 2.61766 37.3867C2.2036 36.98 1.85888 36.5082 1.59715 35.9902C1.33254 35.4688 1.14941 34.9099 1.05415 34.333C0.951274 33.7131 0.895614 33.0863 0.88765 32.458C0.88131 32.2471 0.87301 31.5449 0.87301 31.5449V8.44434C0.87301 8.44434 0.88185 7.75293 0.8877 7.5498C0.895326 6.92248 0.950662 6.29665 1.05323 5.67773C1.14867 5.09925 1.33194 4.53875 1.59669 4.01563C1.85745 3.49794 2.20026 3.02586 2.61183 2.61768C3.02293 2.20562 3.49613 1.8606 4.01417 1.59521C4.53491 1.33209 5.09224 1.14873 5.66749 1.05127C6.28769 0.949836 6.91461 0.894996 7.543 0.88721L8.44532 0.875H142.84L143.753 0.8877C144.376 0.895099 144.997 0.94945 145.611 1.05029C146.193 1.14898 146.756 1.33362 147.282 1.59814C148.32 2.13299 149.165 2.97916 149.697 4.01807C149.958 4.53758 150.138 5.09351 150.233 5.66699C150.336 6.29099 150.394 6.92174 150.406 7.5542C150.409 7.8374 150.409 8.1416 150.409 8.44434C150.417 8.81934 150.417 9.17627 150.417 9.53613V30.4648C150.417 30.8281 150.417 31.1826 150.409 31.54C150.409 31.8652 150.409 32.1631 150.405 32.4697C150.394 33.0909 150.337 33.7104 150.234 34.3232C150.141 34.9043 149.959 35.4675 149.694 35.9932C149.431 36.5056 149.088 36.9733 148.679 37.3789C148.27 37.7927 147.798 38.1379 147.279 38.4014C146.754 38.6674 146.192 38.8527 145.611 38.9512C144.993 39.0522 144.369 39.1067 143.742 39.1143C143.449 39.1211 143.143 39.125 142.845 39.125L141.761 39.127L8.44483 39.125Z" fill="white"/>
<path d="M35.5801 24.271C35.5825 24.1619 35.617 24.056 35.6793 23.9664C35.7416 23.8769 35.829 23.8077 35.9304 23.7676C36.0319 23.7275 36.1429 23.7182 36.2497 23.7409C36.3564 23.7636 36.454 23.8173 36.5303 23.8952C36.6067 23.9732 36.6583 24.0719 36.6788 24.1791C36.6993 24.2863 36.6876 24.3971 36.6454 24.4977C36.6032 24.5983 36.5322 24.6842 36.4414 24.7446C36.3505 24.805 36.2439 24.8373 36.1348 24.8374C36.0609 24.8378 35.9876 24.8233 35.9194 24.7948C35.8511 24.7663 35.7893 24.7244 35.7376 24.6716C35.6859 24.6188 35.6453 24.5561 35.6182 24.4873C35.5912 24.4185 35.5782 24.3449 35.5801 24.271V24.271ZM35.6709 31.3584V25.3916H36.5977V31.3584H35.6709Z" fill="black"/>
<path d="M38.1133 26.8555H38.9688V27.5703H39.0352C39.148 27.3135 39.338 27.0983 39.5789 26.9546C39.8197 26.8109 40.0994 26.7458 40.3789 26.7686C40.598 26.7521 40.818 26.7851 41.0226 26.8652C41.2272 26.9453 41.4112 27.0704 41.5609 27.2313C41.7105 27.3921 41.8221 27.5846 41.8873 27.7944C41.9525 28.0042 41.9697 28.226 41.9375 28.4434V31.3584H41.0489V28.666C41.0489 27.9433 40.7344 27.583 40.0772 27.583C39.9284 27.5761 39.7798 27.6014 39.6418 27.6573C39.5037 27.7132 39.3793 27.7982 39.2772 27.9067C39.1751 28.0151 39.0976 28.1444 39.0501 28.2855C39.0026 28.4267 38.9862 28.5765 39.002 28.7246V31.3584H38.1133V26.8555Z" fill="black"/>
<path d="M43.0889 29.1055C43.0889 27.6816 43.8203 26.7812 44.958 26.7812C45.2393 26.7682 45.5186 26.8355 45.7631 26.9752C46.0076 27.1149 46.2073 27.3213 46.3389 27.5703H46.4053V25.0977H47.294V31.3584H46.4424V30.6465H46.3721C46.2305 30.894 46.0239 31.0981 45.7747 31.2367C45.5254 31.3753 45.243 31.443 44.958 31.4326C43.8125 31.4326 43.0889 30.5312 43.0889 29.1055ZM44.0069 29.1055C44.0069 30.0605 44.4571 30.6348 45.21 30.6348C45.959 30.6348 46.4219 30.0518 46.4219 29.1094C46.4219 28.1699 45.9542 27.5791 45.21 27.5791C44.4619 27.5791 44.0069 28.1582 44.0069 29.1055H44.0069Z" fill="black"/>
<path d="M48.6358 25.5234C48.629 25.4084 48.657 25.2939 48.716 25.1949C48.7751 25.0959 48.8625 25.0169 48.9669 24.9681C49.0714 24.9194 49.188 24.9031 49.3019 24.9214C49.4157 24.9397 49.5214 24.9917 49.6053 25.0708C49.6892 25.1498 49.7474 25.2522 49.7724 25.3648C49.7974 25.4773 49.7881 25.5947 49.7456 25.7019C49.7032 25.8091 49.6295 25.901 49.5342 25.9658C49.4388 26.0306 49.3262 26.0653 49.211 26.0654C49.1372 26.0693 49.0634 26.0581 48.9941 26.0326C48.9248 26.0072 48.8614 25.9679 48.8076 25.9173C48.7539 25.8666 48.7109 25.8056 48.6814 25.7379C48.6519 25.6703 48.6363 25.5973 48.6358 25.5234V25.5234ZM48.7676 26.8554H49.6533V31.3584H48.7676V26.8554Z" fill="black"/>
<path d="M51.0869 26.8555H51.9424V27.5459H52.0088C52.1046 27.3063 52.2739 27.1032 52.4923 26.9658C52.7108 26.8284 52.9672 26.7638 53.2246 26.7813C53.3577 26.7792 53.4907 26.7917 53.6211 26.8184V27.6954C53.4581 27.6599 53.2918 27.6416 53.125 27.6407C52.9784 27.6275 52.8307 27.6452 52.6914 27.6925C52.552 27.7398 52.4241 27.8158 52.3159 27.9154C52.2076 28.0151 52.1215 28.1364 52.0628 28.2714C52.0042 28.4064 51.9745 28.5521 51.9756 28.6993V31.3584H51.0869L51.0869 26.8555Z" fill="black"/>
<path d="M54.5537 25.5234C54.547 25.4084 54.5749 25.2939 54.634 25.1949C54.693 25.0959 54.7804 25.0169 54.8849 24.9681C54.9893 24.9194 55.106 24.9031 55.2198 24.9214C55.3336 24.9397 55.4393 24.9917 55.5232 25.0708C55.6071 25.1498 55.6654 25.2522 55.6904 25.3648C55.7154 25.4773 55.7061 25.5947 55.6636 25.7019C55.6211 25.8091 55.5475 25.901 55.4521 25.9658C55.3568 26.0306 55.2442 26.0653 55.1289 26.0654C55.0552 26.0693 54.9814 26.0581 54.9121 26.0326C54.8428 26.0072 54.7793 25.9679 54.7256 25.9173C54.6718 25.8666 54.6289 25.8056 54.5994 25.7379C54.5698 25.6703 54.5543 25.5973 54.5537 25.5234ZM54.6856 26.8554H55.5713V31.3584H54.6856V26.8554Z" fill="black"/>
<path d="M57.0049 26.8555H57.8604V27.5703H57.9268C58.0396 27.3135 58.2296 27.0983 58.4705 26.9546C58.7113 26.8109 58.991 26.7458 59.2705 26.7686C59.4896 26.7521 59.7096 26.7851 59.9142 26.8652C60.1188 26.9453 60.3028 27.0704 60.4525 27.2313C60.6021 27.3921 60.7137 27.5846 60.7789 27.7944C60.8441 28.0042 60.8613 28.226 60.8291 28.4434V31.3584H59.9404V28.666C59.9404 27.9433 59.626 27.583 58.9688 27.583C58.82 27.5761 58.6714 27.6014 58.5334 27.6573C58.3953 27.7132 58.2709 27.7982 58.1688 27.9067C58.0666 28.0151 57.9892 28.1444 57.9417 28.2855C57.8942 28.4267 57.8778 28.5765 57.8936 28.7246V31.3584H57.0049V26.8555Z" fill="black"/>
<path d="M42.3047 17.2681H37.5713L36.4346 20.6245H34.4297L38.9131 8.20651H40.9961L45.4795 20.6245H43.4404L42.3047 17.2681ZM38.0616 15.7192H41.8135L39.9639 10.272H39.9121L38.0616 15.7192Z" fill="black"/>
<path d="M55.1621 16.0981C55.1621 18.9116 53.6563 20.7192 51.3838 20.7192C50.8082 20.7493 50.2357 20.6167 49.7319 20.3366C49.2281 20.0565 48.8133 19.6401 48.5352 19.1352H48.4922V23.6196H46.6338V11.5708H48.4326V13.0767H48.4668C48.7577 12.5742 49.1795 12.16 49.6871 11.8782C50.1947 11.5963 50.7693 11.4573 51.3496 11.4761C53.6475 11.4761 55.1621 13.2925 55.1621 16.0981ZM53.252 16.0981C53.252 14.2651 52.3047 13.06 50.8594 13.06C49.4395 13.06 48.4844 14.2905 48.4844 16.0981C48.4844 17.9224 49.4395 19.144 50.8594 19.144C52.3047 19.144 53.252 17.9477 53.252 16.0981H53.252Z" fill="black"/>
<path d="M65.1265 16.0981C65.1265 18.9116 63.6211 20.7192 61.3487 20.7192C60.773 20.7493 60.2005 20.6167 59.6967 20.3366C59.1929 20.0565 58.7782 19.6401 58.5 19.1352H58.457V23.6196H56.5986V11.5708H58.3974V13.0767H58.4316C58.7226 12.5742 59.1443 12.16 59.6519 11.8782C60.1596 11.5963 60.7341 11.4573 61.3144 11.4761C63.6123 11.4761 65.1265 13.2925 65.1265 16.0981ZM63.2168 16.0981C63.2168 14.2651 62.2695 13.06 60.8242 13.06C59.4043 13.06 58.4492 14.2905 58.4492 16.0981C58.4492 17.9224 59.4043 19.144 60.8242 19.144C62.2696 19.144 63.2168 17.9477 63.2168 16.0981H63.2168Z" fill="black"/>
<path d="M71.7124 17.1645C71.8501 18.396 73.0464 19.2045 74.6812 19.2045C76.2476 19.2045 77.3745 18.396 77.3745 17.2856C77.3745 16.3217 76.6948 15.7446 75.0855 15.3491L73.4761 14.9614C71.1958 14.4106 70.1372 13.3442 70.1372 11.6137C70.1372 9.47113 72.0044 7.99945 74.6558 7.99945C77.2798 7.99945 79.0786 9.47113 79.1392 11.6137H77.2632C77.1509 10.3745 76.1265 9.62641 74.6294 9.62641C73.1323 9.62641 72.1079 10.3833 72.1079 11.4848C72.1079 12.3627 72.7622 12.8793 74.3628 13.2748L75.7309 13.6108C78.2788 14.2133 79.3374 15.2368 79.3374 17.0531C79.3374 19.3764 77.4868 20.8315 74.5434 20.8315C71.7895 20.8315 69.9302 19.4105 69.8101 17.1644L71.7124 17.1645Z" fill="black"/>
<path d="M83.3482 9.42822V11.5708H85.0698V13.0425H83.3482V18.0337C83.3482 18.8091 83.6929 19.1704 84.4497 19.1704C84.6541 19.1668 84.8582 19.1525 85.0611 19.1274V20.5903C84.7208 20.6539 84.3749 20.6827 84.0288 20.6762C82.1958 20.6762 81.481 19.9878 81.481 18.2319V13.0425H80.1646V11.5708H81.481V9.42822H83.3482Z" fill="black"/>
<path d="M86.0669 16.0981C86.0669 13.2495 87.7446 11.4595 90.3609 11.4595C92.9859 11.4595 94.6558 13.2495 94.6558 16.0981C94.6558 18.9546 92.9947 20.7368 90.3609 20.7368C87.728 20.7368 86.0669 18.9546 86.0669 16.0981ZM92.7622 16.0981C92.7622 14.144 91.8667 12.9907 90.3608 12.9907C88.855 12.9907 87.9605 14.1528 87.9605 16.0981C87.9605 18.0601 88.855 19.2046 90.3608 19.2046C91.8667 19.2046 92.7622 18.0601 92.7622 16.0981H92.7622Z" fill="black"/>
<path d="M96.188 11.5708H97.9605V13.1118H98.0035C98.1234 12.6305 98.4053 12.2052 98.8019 11.9073C99.1985 11.6094 99.6856 11.4571 100.181 11.4761C100.395 11.4753 100.609 11.4986 100.818 11.5454V13.2837C100.548 13.2011 100.265 13.1631 99.9829 13.1714C99.7129 13.1604 99.4438 13.208 99.1939 13.3109C98.9441 13.4138 98.7195 13.5695 98.5355 13.7674C98.3515 13.9653 98.2126 14.2007 98.1281 14.4573C98.0437 14.714 98.0158 14.9859 98.0464 15.2544V20.6245H96.188V11.5708Z" fill="black"/>
<path d="M109.386 17.9653C109.136 19.6089 107.536 20.7368 105.488 20.7368C102.854 20.7368 101.219 18.9722 101.219 16.1411C101.219 13.3013 102.863 11.4595 105.41 11.4595C107.915 11.4595 109.49 13.1802 109.49 15.9253V16.562H103.095V16.6743C103.066 17.0075 103.107 17.3432 103.218 17.659C103.328 17.9749 103.504 18.2636 103.734 18.5062C103.965 18.7487 104.244 18.9395 104.554 19.0658C104.863 19.1921 105.197 19.2511 105.531 19.2388C105.97 19.2799 106.411 19.1782 106.787 18.9487C107.164 18.7193 107.457 18.3744 107.622 17.9653L109.386 17.9653ZM103.104 15.2632H107.63C107.647 14.9636 107.602 14.6638 107.497 14.3826C107.392 14.1014 107.231 13.8448 107.022 13.6291C106.814 13.4133 106.563 13.243 106.285 13.1287C106.008 13.0145 105.71 12.9589 105.41 12.9653C105.107 12.9635 104.807 13.0217 104.527 13.1364C104.247 13.2512 103.992 13.4202 103.778 13.6339C103.564 13.8475 103.394 14.1015 103.278 14.3811C103.162 14.6608 103.103 14.9605 103.104 15.2632V15.2632Z" fill="black"/>
<path d="M110.738 12.7505L111.753 8.20654H113.56L112.33 12.7505H110.738Z" fill="black"/>
<path d="M113.479 16.0981C113.479 13.3013 115.019 11.4761 117.265 11.4761C117.841 11.4474 118.414 11.5825 118.916 11.8658C119.419 12.1491 119.831 12.5689 120.105 13.0767H120.14V8.20654H122.007V20.6245H120.2V19.0845H120.166C119.89 19.6028 119.473 20.0319 118.962 20.3214C118.451 20.611 117.869 20.749 117.283 20.7193C115.019 20.7192 113.479 18.895 113.479 16.0981ZM115.38 16.0981C115.38 17.9565 116.328 19.144 117.773 19.144C119.202 19.144 120.157 17.939 120.157 16.0981C120.157 14.2729 119.202 13.0601 117.773 13.0601C116.328 13.0601 115.38 14.2564 115.38 16.0981H115.38Z" fill="black"/>
<path d="M123.645 18.0513C123.645 16.4683 124.858 15.5122 127.009 15.3833L129.488 15.2456V14.5571C129.488 13.5502 128.826 12.9819 127.699 12.9819C127.281 12.9262 126.857 13.0249 126.507 13.2595C126.156 13.4942 125.904 13.8486 125.796 14.2563H124.058C124.11 12.6205 125.632 11.4594 127.75 11.4594C129.91 11.4594 131.338 12.6381 131.338 14.4194V20.6245H129.557V19.1352H129.514C129.229 19.6402 128.813 20.0593 128.31 20.3486C127.808 20.6379 127.237 20.7868 126.657 20.7798C126.276 20.817 125.891 20.7742 125.528 20.6541C125.165 20.534 124.83 20.3392 124.547 20.0822C124.263 19.8253 124.036 19.5119 123.881 19.1621C123.726 18.8123 123.645 18.4339 123.645 18.0513V18.0513ZM129.488 17.2339V16.5366L127.259 16.6743C126.149 16.7436 125.521 17.2251 125.521 17.9995C125.521 18.7915 126.175 19.3081 127.173 19.3081C127.462 19.3277 127.752 19.2892 128.026 19.1949C128.3 19.1007 128.552 18.9525 128.768 18.7592C128.984 18.5659 129.159 18.3313 129.282 18.0693C129.406 17.8074 129.476 17.5233 129.488 17.2339H129.488Z" fill="black"/>
<path d="M133.232 11.5708H135.004V13.1118H135.047C135.299 12.581 135.707 12.1395 136.216 11.8459C136.724 11.5523 137.311 11.4206 137.896 11.4682C139.893 11.4682 141.038 12.7505 141.038 14.8237V20.6245H139.171V15.1851C139.171 13.8257 138.542 13.0688 137.234 13.0688C136.933 13.0613 136.634 13.1182 136.358 13.236C136.081 13.3537 135.832 13.5294 135.629 13.7512C135.426 13.9731 135.273 14.2359 135.18 14.522C135.087 14.8081 135.056 15.1108 135.09 15.4097V20.6245H133.232V11.5708Z" fill="black"/>
<path d="M24.9967 19.8894C25.0079 19.0214 25.2384 18.1704 25.6669 17.4154C26.0954 16.6605 26.7078 16.0263 27.4473 15.5716C26.9775 14.9007 26.3578 14.3486 25.6373 13.9591C24.9169 13.5696 24.1155 13.3535 23.2969 13.3279C21.5507 13.1446 19.8578 14.3728 18.9679 14.3728C18.0608 14.3728 16.6908 13.3461 15.2154 13.3764C14.2611 13.4073 13.3311 13.6848 12.516 14.1819C11.7008 14.679 11.0283 15.3788 10.5641 16.2131C8.55295 19.6951 10.0531 24.8125 11.9796 27.6271C12.9435 29.0054 14.0699 30.5449 15.544 30.4903C16.9864 30.4305 17.5251 29.5705 19.2661 29.5705C20.9911 29.5705 21.4965 30.4903 23.0004 30.4556C24.5482 30.4305 25.5233 29.0712 26.4534 27.6799C27.146 26.6979 27.6789 25.6125 28.0324 24.4641C27.1332 24.0837 26.3658 23.4471 25.826 22.6336C25.2862 21.8201 24.9978 20.8657 24.9967 19.8894Z" fill="black"/>
<path d="M22.1561 11.4768C23 10.4637 23.4158 9.1616 23.3151 7.84692C22.0258 7.98234 20.8349 8.59854 19.9796 9.57274C19.5614 10.0487 19.2411 10.6023 19.037 11.2021C18.8329 11.8019 18.7491 12.436 18.7902 13.0682C19.4351 13.0749 20.0731 12.9351 20.6561 12.6594C21.2391 12.3838 21.752 11.9794 22.1561 11.4768V11.4768Z" fill="black"/>
</g>
<defs>
<clipPath id="clip0">
<rect width="151.29" height="40" fill="white"/>
</clipPath>
</defs>
</svg>
