<svg width="122" height="29" viewBox="0 0 122 29" fill="none" xmlns="http://www.w3.org/2000/svg">
<path d="M49.16 7.8C49.4533 7.8 49.6933 7.9 49.88 8.1C50.0667 8.28667 50.16 8.53333 50.16 8.84V21.12C50.16 21.4267 50.0733 21.6667 49.9 21.84C49.74 22.0133 49.5133 22.1 49.22 22.1C48.94 22.1 48.72 22.0133 48.56 21.84C48.4 21.6667 48.32 21.4267 48.32 21.12V11.82L44.4 19.28C44.1467 19.7467 43.82 19.98 43.42 19.98C43.02 19.98 42.6933 19.7467 42.44 19.28L38.5 11.9V21.12C38.5 21.4267 38.42 21.6667 38.26 21.84C38.1 22.0133 37.8733 22.1 37.58 22.1C37.3 22.1 37.0733 22.0133 36.9 21.84C36.74 21.6533 36.66 21.4133 36.66 21.12V8.84C36.66 8.53333 36.7533 8.28667 36.94 8.1C37.1267 7.9 37.3667 7.8 37.66 7.8C38.0733 7.8 38.4067 8.04 38.66 8.52L43.44 17.66L48.18 8.52C48.4333 8.04 48.76 7.8 49.16 7.8ZM57.4564 22.14C56.4964 22.14 55.6497 21.9333 54.9164 21.52C54.1964 21.1067 53.6364 20.52 53.2364 19.76C52.8497 18.9867 52.6564 18.0933 52.6564 17.08C52.6564 16.0533 52.8497 15.16 53.2364 14.4C53.6364 13.6267 54.1964 13.0333 54.9164 12.62C55.6497 12.2067 56.4964 12 57.4564 12C58.4164 12 59.2564 12.2067 59.9764 12.62C60.7097 13.0333 61.2697 13.6267 61.6564 14.4C62.0564 15.16 62.2564 16.0533 62.2564 17.08C62.2564 18.0933 62.0564 18.9867 61.6564 19.76C61.2697 20.52 60.7097 21.1067 59.9764 21.52C59.2564 21.9333 58.4164 22.14 57.4564 22.14ZM57.4564 20.54C58.3497 20.54 59.0297 20.2467 59.4964 19.66C59.9764 19.0733 60.2164 18.2133 60.2164 17.08C60.2164 15.96 59.9764 15.1067 59.4964 14.52C59.0164 13.92 58.3364 13.62 57.4564 13.62C56.5764 13.62 55.8964 13.92 55.4164 14.52C54.9364 15.1067 54.6964 15.96 54.6964 17.08C54.6964 18.2133 54.9297 19.0733 55.3964 19.66C55.8764 20.2467 56.5631 20.54 57.4564 20.54ZM68.7455 22.14C67.7855 22.14 66.9388 21.9333 66.2055 21.52C65.4855 21.1067 64.9255 20.52 64.5255 19.76C64.1388 18.9867 63.9455 18.0933 63.9455 17.08C63.9455 16.0533 64.1388 15.16 64.5255 14.4C64.9255 13.6267 65.4855 13.0333 66.2055 12.62C66.9388 12.2067 67.7855 12 68.7455 12C69.7055 12 70.5455 12.2067 71.2655 12.62C71.9988 13.0333 72.5588 13.6267 72.9455 14.4C73.3455 15.16 73.5455 16.0533 73.5455 17.08C73.5455 18.0933 73.3455 18.9867 72.9455 19.76C72.5588 20.52 71.9988 21.1067 71.2655 21.52C70.5455 21.9333 69.7055 22.14 68.7455 22.14ZM68.7455 20.54C69.6388 20.54 70.3188 20.2467 70.7855 19.66C71.2655 19.0733 71.5055 18.2133 71.5055 17.08C71.5055 15.96 71.2655 15.1067 70.7855 14.52C70.3055 13.92 69.6255 13.62 68.7455 13.62C67.8655 13.62 67.1855 13.92 66.7055 14.52C66.2255 15.1067 65.9855 15.96 65.9855 17.08C65.9855 18.2133 66.2188 19.0733 66.6855 19.66C67.1655 20.2467 67.8521 20.54 68.7455 20.54ZM83.7745 7.8C84.0812 7.8 84.3279 7.88667 84.5145 8.06C84.7012 8.23333 84.7945 8.46667 84.7945 8.76V21.12C84.7945 21.4267 84.7012 21.6667 84.5145 21.84C84.3412 22.0133 84.1012 22.1 83.7945 22.1C83.4879 22.1 83.2412 22.0133 83.0545 21.84C82.8812 21.6667 82.7945 21.4267 82.7945 21.12V20.32C82.5012 20.9067 82.0745 21.36 81.5145 21.68C80.9545 21.9867 80.3079 22.14 79.5745 22.14C78.7345 22.14 77.9812 21.9267 77.3145 21.5C76.6612 21.0733 76.1479 20.4733 75.7745 19.7C75.4145 18.9267 75.2345 18.04 75.2345 17.04C75.2345 16.0267 75.4145 15.14 75.7745 14.38C76.1479 13.62 76.6612 13.0333 77.3145 12.62C77.9679 12.2067 78.7212 12 79.5745 12C80.3079 12 80.9479 12.16 81.4945 12.48C82.0545 12.7867 82.4812 13.2267 82.7745 13.8V8.72C82.7745 8.44 82.8612 8.22 83.0345 8.06C83.2212 7.88667 83.4679 7.8 83.7745 7.8ZM80.0545 20.54C80.9212 20.54 81.5945 20.24 82.0745 19.64C82.5545 19.04 82.7945 18.1867 82.7945 17.08C82.7945 15.9733 82.5545 15.12 82.0745 14.52C81.6079 13.92 80.9345 13.62 80.0545 13.62C79.1745 13.62 78.4879 13.92 77.9945 14.52C77.5145 15.1067 77.2745 15.9467 77.2745 17.04C77.2745 18.1333 77.5212 18.9933 78.0145 19.62C78.5079 20.2333 79.1879 20.54 80.0545 20.54ZM95.2509 19.54C95.4376 19.54 95.5909 19.6133 95.7109 19.76C95.8309 19.9067 95.8909 20.0933 95.8909 20.32C95.8909 20.7067 95.6509 21.0333 95.1709 21.3C94.7043 21.5667 94.1909 21.7733 93.6309 21.92C93.0843 22.0667 92.5576 22.14 92.0509 22.14C90.5043 22.14 89.2843 21.6933 88.3909 20.8C87.4976 19.8933 87.0509 18.66 87.0509 17.1C87.0509 16.1 87.2443 15.2133 87.6309 14.44C88.0309 13.6667 88.5843 13.0667 89.2909 12.64C90.0109 12.2133 90.8243 12 91.7309 12C93.0376 12 94.0709 12.42 94.8309 13.26C95.5909 14.1 95.9709 15.2333 95.9709 16.66C95.9709 17.1933 95.7309 17.46 95.2509 17.46H89.0709C89.2043 19.5267 90.1976 20.56 92.0509 20.56C92.5443 20.56 92.9709 20.4933 93.3309 20.36C93.6909 20.2267 94.0709 20.0533 94.4709 19.84C94.5109 19.8133 94.6176 19.76 94.7909 19.68C94.9776 19.5867 95.1309 19.54 95.2509 19.54ZM91.7709 13.48C90.9976 13.48 90.3776 13.7267 89.9109 14.22C89.4443 14.7133 89.1643 15.4067 89.0709 16.3H94.2309C94.1909 15.3933 93.9576 14.7 93.5309 14.22C93.1176 13.7267 92.5309 13.48 91.7709 13.48ZM102.758 9.44C102.091 9.49333 101.598 9.70667 101.278 10.08C100.958 10.44 100.798 10.9733 100.798 11.68V12.24H102.778C103.058 12.24 103.271 12.3133 103.418 12.46C103.578 12.5933 103.658 12.78 103.658 13.02C103.658 13.26 103.578 13.4533 103.418 13.6C103.271 13.7333 103.058 13.8 102.778 13.8H100.798V21.12C100.798 21.44 100.698 21.6867 100.498 21.86C100.311 22.02 100.071 22.1 99.7778 22.1C99.4845 22.1 99.2445 22.02 99.0578 21.86C98.8711 21.6867 98.7778 21.44 98.7778 21.12V13.8H97.5778C97.2978 13.8 97.0778 13.7333 96.9178 13.6C96.7711 13.4533 96.6978 13.26 96.6978 13.02C96.6978 12.78 96.7711 12.5933 96.9178 12.46C97.0778 12.3133 97.2978 12.24 97.5778 12.24H98.7778V11.98C98.7778 10.7533 99.0911 9.79333 99.7178 9.1C100.344 8.39333 101.231 8 102.378 7.92L102.898 7.88C103.324 7.85333 103.631 7.9 103.818 8.02C104.018 8.14 104.118 8.33333 104.118 8.6C104.118 9.06667 103.838 9.33333 103.278 9.4L102.758 9.44ZM112.266 12.64C112.346 12.44 112.459 12.2933 112.606 12.2C112.766 12.1067 112.932 12.06 113.106 12.06C113.359 12.06 113.579 12.1467 113.766 12.32C113.966 12.4933 114.066 12.7 114.066 12.94C114.066 13.0733 114.039 13.2 113.986 13.32L108.426 25.12C108.346 25.3067 108.226 25.4467 108.066 25.54C107.919 25.6467 107.759 25.7 107.586 25.7C107.346 25.7 107.126 25.62 106.926 25.46C106.739 25.3 106.646 25.1 106.646 24.86C106.646 24.7533 106.679 24.62 106.746 24.46L108.126 21.52L104.266 13.32C104.212 13.2133 104.186 13.0933 104.186 12.96C104.186 12.7067 104.292 12.4933 104.506 12.32C104.719 12.1467 104.959 12.06 105.226 12.06C105.626 12.06 105.912 12.2467 106.086 12.62L109.186 19.5L112.266 12.64Z" fill="#5F5D5D"/>
<rect x="23.5885" y="1.58466" width="7.92334" height="27.4147" rx="3.96167" fill="#61B379" fill-opacity="0.7"/>
<rect x="1.08633" y="16.6396" width="7.92334" height="12.3604" rx="3.96167" fill="#61B379" fill-opacity="0.7"/>
<rect y="5.67226" width="7.92334" height="23.4531" rx="3.96167" transform="rotate(-45 0 5.67226)" fill="#61B379" fill-opacity="0.7"/>
<rect x="27.4953" width="7.92334" height="23.4531" rx="3.96167" transform="rotate(45 27.4953 0)" fill="#61B379" fill-opacity="0.7"/>
</svg>
