<svg width="100%" height="100%" viewBox="0 0 864 900" fill="none" xmlns="http://www.w3.org/2000/svg">
<mask id="mask0" mask-type="alpha" maskUnits="userSpaceOnUse" x="0" y="0" width="864" height="900">
<rect width="864" height="900" fill="#C4C4C4"/>
</mask>
<g mask="url(#mask0)">
<g opacity="0.7">
<path d="M1340.79 -241.769C1314.95 -367.242 1114.57 -509.676 1026.88 -565.032C1003.8 -565.032 934.573 -615.775 713.044 -574.258C535.82 -541.045 405.364 -295.942 362.289 -177.542C468.438 -191.381 713.044 -103.735 713.044 -99.1219C713.044 -95.4315 648.431 -94.5089 616.125 -94.5089C461.054 -79.7474 323.829 19.2778 274.6 66.9451C189.681 148.133 131.529 294.518 113.068 357.562C301.368 353.872 413.056 417.531 445.362 449.822C422.286 459.048 223.833 472.887 145.375 477.5C82.6081 481.19 54.6095 515.941 48.4561 532.855C-32.7714 728.445 23.8417 1051.05 62.3017 1187.9C84.4546 1309.68 185.374 1500.04 233.064 1580C251.525 1561.55 379.212 1504.65 440.748 1478.51C602.28 1367.8 579.507 1313.34 583.819 1275.54C588.515 1234.38 586.896 1217.11 593.049 1206.35C625.356 1215.58 634.586 1252.48 745.351 1220.19C856.115 1187.9 879.191 1095.64 929.958 1021.83C970.572 962.784 974.572 880.366 971.495 846.537C957.65 791.182 869.962 726.6 860.731 717.374C851.501 708.148 828.425 689.696 846.886 694.309C865.346 698.922 957.65 721.987 1045.34 703.535C1133.03 685.083 1202.26 482.113 1206.87 357.562C1211.49 233.012 1096.11 108.462 1077.65 90.01C1062.88 75.2485 1068.41 65.4075 1073.03 62.3322C1113.03 73.0958 1205.02 97.3907 1253.02 108.462C1313.02 122.301 1345.33 99.2359 1359.17 62.3322C1381.54 2.71881 1377.71 -144.541 1340.79 -241.769Z" fill="#61B379"/>
<path d="M417.672 1220.19C436.133 1224.8 467.516 1243.25 445.363 1280.16C417.672 1326.29 366.905 1238.64 417.672 1220.19Z" fill="#A5D7A2"/>
<path d="M1105.34 -657.291C1105.34 -642.529 566.896 575.911 297.677 1183.29C271.832 1212.81 274.601 1161.76 279.216 1132.54C283.831 1072.57 1003.8 -583.483 1040.72 -643.452C1077.64 -703.42 1105.34 -675.742 1105.34 -657.291Z" fill="#A5D7A2"/>
<path d="M1206.87 -112.96C1188.41 -201.529 1079.18 -208.294 1026.88 -200.606C1013.03 -172.928 1063.8 -163.702 1123.8 -131.412C1171.79 -105.579 1199.18 -108.347 1206.87 -112.96Z" fill="#A5D7A2"/>
<path d="M588.434 -334.382C551.512 -327.002 563.82 -309.78 574.588 -302.092C606.895 -279.027 717.659 -283.64 740.735 -288.253C763.811 -292.866 768.427 -302.092 763.811 -325.156C759.196 -348.221 634.586 -343.608 588.434 -334.382Z" fill="#A5D7A2"/>
<path d="M888.422 316.047C821.963 290.214 848.423 336.036 869.961 362.176C891.499 382.166 947.496 427.681 999.186 449.823C1050.88 471.965 1042.26 440.597 1031.49 422.145C1011.49 397.542 954.881 341.879 888.422 316.047Z" fill="#A5D7A2"/>
<path d="M662.277 892.668C610.587 855.764 613.048 895.744 620.74 920.346C620.74 924.959 636.432 951.714 699.198 1021.83C761.965 1091.95 753.042 1035.67 740.735 998.767C736.12 978.777 713.967 929.572 662.277 892.668Z" fill="#A5D7A2"/>
<path d="M279.216 763.505C338.291 752.434 303.83 728.139 279.216 717.375C177.682 698.923 145.375 740.44 154.605 749.666C163.836 758.892 205.372 777.344 279.216 763.505Z" fill="#A5D7A2"/>
<path d="M366.904 168.432C315.214 179.503 345.366 197.647 366.904 205.335C436.131 228.4 528.436 205.335 519.205 182.271C509.975 159.206 431.517 154.593 366.904 168.432Z" fill="#A5D7A2"/>
</g>
<path fill-rule="evenodd" clip-rule="evenodd" d="M569.124 135.396C545.381 153.476 525.498 175.933 510.492 201.497C485.907 196.597 459.414 195.554 432.59 199.391C439.323 170.18 453.117 142.688 473.045 119.723C477.683 114.404 484.55 111.55 491.596 112.058C519.02 114 545.501 122.114 569.124 135.396ZM636 273.052C659.754 246.839 687.545 227.661 717.104 215.139C699.509 188.797 675.183 167.147 646.039 152.594C639.725 149.441 632.275 149.441 625.961 152.594C596.817 167.147 572.491 188.797 554.896 215.139C584.456 227.661 612.246 246.84 636 273.052ZM779.102 494.499C799.599 484.294 818.405 470.817 834.802 454.441C884.278 405.015 901.603 331.906 879.446 265.536C877.216 258.858 871.95 253.598 865.262 251.372C798.866 229.274 725.646 246.501 676.11 295.957C659.713 312.333 646.203 331.114 636 351.599C625.797 331.114 612.287 312.333 595.89 295.957C546.399 246.546 473.194 229.244 406.738 251.372C400.035 253.598 394.784 258.858 392.554 265.536C370.427 331.847 387.677 404.97 437.198 454.441C453.58 470.802 472.401 484.294 492.898 494.499C472.401 504.704 453.595 518.181 437.198 534.557C387.722 583.983 370.397 657.092 392.554 723.462C394.784 730.141 400.05 735.4 406.738 737.626C473.134 759.725 546.354 742.497 595.89 693.041C612.287 676.665 625.797 657.884 636 637.399C646.203 657.884 659.713 676.665 676.11 693.041C725.871 742.736 799.165 759.635 865.262 737.626C871.965 735.4 877.216 730.141 879.446 723.462C901.573 657.152 884.323 584.028 834.802 534.557C818.42 518.196 799.599 504.704 779.102 494.499ZM970.259 504.525C956.824 531.36 937.36 554.086 913.736 571.253C901.042 542.981 882.466 516.85 857.737 494.499C881.461 473.058 900.494 447.244 913.721 417.73C937.345 434.898 956.824 457.639 970.259 484.473C973.416 490.779 973.416 498.22 970.259 504.525ZM358.279 571.268C371.506 541.754 390.539 515.94 414.263 494.499C389.535 472.15 370.958 446.014 358.264 417.745C334.64 434.913 315.176 457.639 301.741 484.473C298.584 490.779 298.584 498.22 301.741 504.525C315.176 531.36 334.655 554.1 358.279 571.268ZM717.403 773.979C699.913 799.409 676.095 820.327 647.685 834.521C641.525 837.583 634.127 837.755 627.622 834.521C598.807 820.133 574.705 798.811 557.155 772.873C586.893 759.905 613.599 740.665 636 715.946C659.791 742.2 687.672 761.416 717.403 773.979ZM1011.27 666.012C987.883 686.258 959.801 700.153 929.999 706.742C935.579 676.62 935.07 645.632 928.398 615.51C951.767 600.658 972.323 581.623 989.005 559.255C1006.2 585.433 1016.68 615.839 1018.94 647.484C1019.45 654.522 1016.59 661.38 1011.27 666.012ZM798.955 869.275C818.898 846.31 832.677 818.803 839.41 789.593C813.833 793.288 787.313 792.572 761.987 787.575C746.667 813.095 726.454 835.433 702.382 853.333C726.125 866.78 752.801 874.983 780.404 876.94C780.942 876.985 781.466 877 782.005 877C788.483 877 794.676 874.206 798.955 869.275ZM491.596 876.94C519.947 874.923 547.296 866.332 571.503 852.257C547.865 834.417 528.026 812.259 512.961 787.008C486.884 792.472 459.384 793.477 432.59 789.607C439.323 818.818 453.117 846.31 473.045 869.275C477.324 874.206 483.517 877 489.996 877C490.534 877 491.058 876.985 491.596 876.94ZM839.41 199.391C812.588 195.554 786.095 196.597 761.508 201.497C746.502 175.933 726.619 153.476 702.876 135.396C726.499 122.114 752.98 114 780.404 112.058C787.45 111.55 794.317 114.404 798.955 119.723C818.883 142.688 832.677 170.18 839.41 199.391ZM260.733 668.806C284.267 689.186 312.543 703.126 342.57 709.656C336.391 678.622 336.72 646.588 343.617 615.51C320.697 600.957 300.484 582.385 283.982 560.57C266.209 587.076 255.347 618.035 253.058 650.279C252.549 657.316 255.407 664.174 260.733 668.806ZM1018.94 341.514C1016.68 373.16 1006.2 403.565 989.005 429.743C972.323 407.361 951.767 388.34 928.383 373.488C935.056 343.381 935.579 312.378 929.999 282.256C959.801 288.845 987.883 302.741 1011.27 322.986C1016.59 327.618 1019.45 334.476 1018.94 341.514ZM282.995 429.743C299.677 407.376 320.233 388.34 343.602 373.488C336.929 343.366 336.436 312.363 342.001 282.256C312.199 288.845 284.117 302.741 260.733 322.986C255.407 327.618 252.549 334.476 253.058 341.514C255.317 373.16 265.805 403.565 282.995 429.743ZM568.675 494.499C568.675 457.429 598.882 427.263 636 427.263C673.118 427.263 703.325 457.429 703.325 494.499C703.325 531.569 673.118 561.736 636 561.736C598.882 561.736 568.675 531.569 568.675 494.499ZM613.558 494.499C613.558 506.871 623.612 516.911 636 516.911C648.388 516.911 658.441 506.871 658.441 494.499C658.441 482.128 648.388 472.087 636 472.087C623.612 472.087 613.558 482.128 613.558 494.499Z" fill="#61B379"/>
<path d="M461.45 833.043C434.809 833.255 413.866 834.444 396.135 836.95C353.504 842.975 328.158 857.127 316.93 883.82C311.198 897.447 313.959 909.224 324.483 918.396C333.519 926.271 348.22 932.226 368.23 936.586L369.347 936.826C403.578 944.112 452.181 946.748 513.816 945.821L517.606 945.76C546.56 945.261 576.248 944.068 611.983 942.141L647.561 940.12C660.061 939.397 672.939 938.655 677.524 938.409L683.724 938.088C696.894 937.431 705.382 937.187 710.622 937.35L716.497 937.574C801.433 940.692 867.717 936.433 910.361 926.394C929.814 921.815 943.73 916.136 951.513 909.674C959.942 902.676 961.397 894.253 955.148 886.814C935.653 863.608 903.658 850.496 851.964 843.507L849.293 843.153C806.343 837.565 752.924 835.848 651.409 835.78L636.801 835.767C617.048 835.709 598.136 835.438 573.033 834.9L511.281 833.491C492.799 833.104 482.404 832.984 470.82 833.002L461.45 833.043Z" fill="white"/>
<ellipse cx="636.323" cy="908.989" rx="318.66" ry="33.262" fill="#E7EAEE"/>
<path fill-rule="evenodd" clip-rule="evenodd" d="M701.683 672.822C707.468 673.842 711.43 668.191 720.387 649.346L721.048 647.979L721.699 646.676C732.375 625.682 744.721 618.99 758.738 626.6L764.363 609.999L762.474 609.131L760.657 608.311C731.558 595.31 715.842 594.52 713.508 605.94L713.278 607.189L713.085 608.194C711.375 616.901 707.2 633.67 704.179 647.945L703.67 650.381C701.148 662.616 699.672 672.468 701.683 672.822Z" fill="white"/>
<path fill-rule="evenodd" clip-rule="evenodd" d="M639.716 504.456C639.716 504.456 682.255 510.094 703.771 509.117C725.287 508.14 756.752 499.143 756.752 499.143L756.004 526.312C756.004 526.312 856.378 524.285 841.22 606.509C831.237 660.665 754.848 638.396 754.848 638.396L769.458 606.509C769.458 606.509 815.277 609.824 798.593 595.883C795.497 593.297 775.71 589.729 749.672 590.426C727.306 591.024 707.879 584.324 705.857 578.308C698.279 555.754 709.284 543.89 709.284 543.89C709.284 543.89 698.639 549.071 700.659 561.668C702.678 574.265 687.801 832.185 687.801 832.185C687.801 832.185 674.343 834.571 667.575 834.571C660.807 834.571 651.491 832.185 651.491 832.185L639.716 504.456Z" fill="white"/>
<path fill-rule="evenodd" clip-rule="evenodd" d="M639.716 504.456C639.716 504.456 662.155 834.313 659.03 833.795C656.674 833.406 651.491 832.185 651.491 832.185L639.716 504.456Z" fill="#E7EAEE"/>
<path fill-rule="evenodd" clip-rule="evenodd" d="M658.193 837.267C659.668 850.245 656.911 855.447 657.275 855.447C663.288 855.447 666.88 855.328 676.525 854.577C676.525 854.577 675.985 848.987 675.985 846.357C675.985 843.217 676.525 837.267 676.525 837.267H658.193Z" fill="white"/>
<path d="M643.33 204.309C643.33 204.309 620.897 212.733 620.897 196.876C620.897 181.02 638.204 188.924 638.204 188.924" fill="white"/>
<path d="M742.034 205.964C746.743 207.012 761.476 216.2 761.476 193.954C761.476 183.338 744.652 191.006 744.652 191.006" fill="white"/>
<path d="M688.5 113.188C669.967 114.986 631.127 132.609 638.198 182.959C643.68 221.99 672.874 264.062 690.813 264.062C708.426 264.062 738.079 228.645 742.385 193.775C751.178 122.563 707.033 111.39 688.5 113.188Z" fill="white"/>
<path fill-rule="evenodd" clip-rule="evenodd" d="M689.186 149.218C690.172 146.932 693.356 146.78 694.555 148.962C700.67 160.088 707.52 167.842 715.058 172.28C722.669 176.762 731.649 177.205 740.811 173.097C742.318 172.421 744.088 173.095 744.764 174.602C745.44 176.11 744.765 177.879 743.258 178.555C732.34 183.451 721.316 182.908 712.023 177.435C704.779 173.17 698.256 166.392 692.424 157.137L692.21 156.793L692.018 157.167C687.308 166.108 681.231 173.25 673.792 178.555L673.043 179.079C663.677 185.526 652.683 188.392 640.171 187.685C638.521 187.592 637.26 186.18 637.353 184.531C637.446 182.881 638.858 181.62 640.508 181.713C651.732 182.346 661.411 179.823 669.652 174.151C677.972 168.425 684.481 160.137 689.186 149.218Z" fill="#E7EAEE"/>
<path fill-rule="evenodd" clip-rule="evenodd" d="M784.848 435.709C783.044 469.653 770.361 484.055 754.513 486.123C752.408 486.398 755.355 498.495 753.522 500.081C743.076 509.117 724.661 509.507 695.786 509.769C669.647 510.007 652.789 507.896 641.074 503.094C640.178 502.727 640.985 487.502 640.058 487.42C625.383 486.123 608.477 473.099 604.369 437.677C590.461 317.748 632.293 294.57 672.107 275.462C674.267 274.425 675.441 272.62 677.586 271.593C682.113 269.427 680.933 274.412 691.221 274.412C701.509 274.412 701.509 270.505 706.142 272.719C707.87 273.545 708.156 278.704 709.877 279.612C750.62 301.11 789.834 341.896 784.848 435.709Z" fill="white"/>
<path fill-rule="evenodd" clip-rule="evenodd" d="M709.877 279.612C763.68 299.083 788.67 351.115 784.848 435.709C780.265 537.134 665.071 446.337 703.474 358.961C712.623 338.144 724.644 426.282 724.776 426.655C727.838 435.321 737.195 442.043 746.656 445.637C746.656 445.637 750.891 384.546 743.53 355.743C736.606 328.651 709.877 279.612 709.877 279.612Z" fill="white"/>
<path fill-rule="evenodd" clip-rule="evenodd" d="M675.232 259.575C675.232 259.575 676.743 264.107 676.218 266.908C675.693 269.71 672.482 274.242 672.482 274.242C672.482 274.242 583.166 301.486 603.849 437.456C626.857 536.064 707.521 471.937 693.525 393.31C692.944 334.926 679.727 354.693 669.798 419.029C667.368 434.768 637.519 439.238 637.519 439.238" fill="white"/>
<ellipse cx="698.281" cy="219.21" rx="5.5" ry="4.5" fill="#FFB61D"/>
<ellipse cx="665.281" cy="219.21" rx="5.5" ry="4.5" fill="#FFB61D"/>
<path d="M676.487 230.352C676.843 228.738 684.208 230.005 686.28 232.76L686.92 233.614C688.85 236.173 690.027 236.98 692.518 236.98C695.7 236.98 696.783 236.409 698.592 234.04L699.076 233.39C701.176 230.514 708.587 228.425 709.149 229.979C709.711 231.532 708.907 233.248 707.353 233.81C706.189 234.231 705.526 234.784 704.39 236.272L703.857 236.99C700.752 241.242 698.169 242.964 692.518 242.964C687.93 242.964 685.271 241.245 682.437 237.601L681.498 236.356L681.074 235.805C680.139 234.622 679.569 234.143 678.907 233.954L678.763 233.918C677.15 233.562 676.13 231.965 676.487 230.352Z" fill="#00160A"/>
<path d="M682.299 185.869C678.734 184.779 675.485 184.466 673.605 184.694C671.583 184.94 669.026 185.983 666.667 186.945C664.778 187.715 663.016 188.434 661.757 188.65C660.507 188.865 658.63 188.795 656.802 188.727C654.49 188.641 652.256 188.558 651.459 189.055C650.031 189.947 652.163 191.387 653.41 191.552C657.72 192.122 660.859 192.258 662.94 191.925C664.785 191.63 666.451 191.119 668.714 190.251L671.076 189.352C672.646 188.768 673.051 188.674 673.605 188.661L673.995 188.662C675.576 188.702 677.909 189.176 680.933 190.101C682.133 190.468 683.413 189.818 683.79 188.65C684.167 187.481 683.5 186.236 682.299 185.869Z" fill="#00160A"/>
<path d="M691.119 217.974C692.807 213.044 693.786 188.757 691.927 188.738C690.068 188.719 688.545 190.21 688.526 192.069C688.499 194.682 688.515 197.189 688.531 199.539C688.577 206.593 688.614 212.237 687.435 215.122L687.183 215.718C685.659 219.499 685.232 222.716 689.305 223.469C691.736 223.918 702.653 217.726 702.025 215.977C701.396 214.228 699.468 213.32 697.719 213.948L697.259 214.111C696.221 214.476 694.863 215.612 693.64 216.636C692.554 217.545 691.575 218.364 691.021 218.474L690.934 218.49L691.119 217.974Z" fill="#00160A"/>
<path d="M704.939 185.869C708.504 184.779 711.754 184.466 713.633 184.694C715.656 184.94 718.213 185.983 720.572 186.945C722.461 187.715 724.222 188.434 725.481 188.65C726.732 188.865 728.608 188.795 730.437 188.727C732.748 188.641 734.982 188.558 735.78 189.055C737.208 189.947 735.076 191.387 733.829 191.552C729.518 192.122 726.379 192.258 724.299 191.925C722.453 191.63 720.787 191.119 718.525 190.251L716.163 189.352C714.592 188.768 714.187 188.674 713.633 188.661L713.244 188.662C711.662 188.702 709.329 189.176 706.306 190.101C705.105 190.468 703.826 189.818 703.448 188.65C703.071 187.481 703.738 186.236 704.939 185.869Z" fill="#00160A"/>
<path d="M724.199 202.781C725.139 201.177 724.601 199.115 722.997 198.175C722.432 197.844 721.983 198.473 721.303 199.427C720.054 201.178 718.027 204.021 713.067 204.021C708.069 204.021 706.019 201.151 704.772 199.405C704.107 198.474 703.671 197.863 703.137 198.175C701.534 199.115 700.996 201.177 701.936 202.781C704.308 206.827 708.167 208.932 713.067 208.932C717.968 208.932 721.827 206.827 724.199 202.781Z" fill="#00160A"/>
<path d="M681.23 198.249C682.793 199.256 683.243 201.339 682.237 202.902C679.66 206.902 675.542 208.932 670.305 208.932C665.03 208.932 660.954 206.865 658.554 202.785C657.612 201.183 657.25 199.021 659.749 198.178C660.842 197.809 661.949 198.875 663.317 200.193C665.08 201.89 667.276 204.005 670.431 204.005C676.402 204.005 678.516 201.013 679.722 199.306C680.329 198.446 680.707 197.912 681.23 198.249Z" fill="#00160A"/>
<path fill-rule="evenodd" clip-rule="evenodd" d="M691.892 44.7155C673.032 48.0796 658.586 62.3684 655.764 83.4776C655.63 84.4811 655.542 85.4599 655.499 86.4138C652.23 87.4389 642.548 90.5644 642.814 91.5403C643.062 92.4487 651.65 90.407 655.519 89.4375C656.08 98.6927 661.309 105.328 670.12 109.387C672.362 110.42 674.773 111.269 677.334 111.953C668.228 114.82 658.921 120.067 651.569 127.275C637.982 140.594 631.685 159.38 635.038 183.252C635.068 183.467 635.099 183.683 635.131 183.898C624.293 180.56 617.699 184.99 617.699 196.705C617.699 208.457 634.885 215.062 642.154 210.284C649.481 229.684 660.892 247.62 672.362 258.003C672.014 258.754 671.94 259.635 672.223 260.482C673.065 263.01 673.321 264.917 673.093 266.133L673.046 266.356C672.788 267.426 672.041 268.954 670.791 270.864L670.552 271.222L669.852 271.443C609.79 290.731 586.806 346.625 600.684 437.848L600.734 438.107L600.99 439.184C607.686 466.922 620.362 483.108 636.15 487.302C636.148 487.377 636.148 487.453 636.15 487.53C638.909 580.965 641.321 655.412 643.387 710.874L644.136 730.569L644.884 749.238C645.941 774.895 646.889 794.622 647.73 808.424L648.268 816.895C649.191 830.754 649.729 833.804 651.708 835.203L651.901 835.332L652.048 835.42C652.474 835.667 652.999 835.888 653.625 836.083C652.889 836.082 652.15 836.082 651.409 836.081L636.801 836.068C617.048 836.01 598.136 835.74 573.033 835.203L511.281 833.798C492.799 833.413 482.404 833.293 470.82 833.31L461.45 833.351C434.809 833.563 413.866 834.748 396.135 837.247C353.504 843.256 328.158 857.369 316.93 883.99C311.198 897.579 313.959 909.325 324.483 918.472C333.519 926.325 348.22 932.264 368.23 936.612L369.347 936.851C403.578 944.117 452.181 946.746 513.816 945.822L517.606 945.761C546.56 945.263 576.248 944.073 611.983 942.152L647.561 940.136C660.061 939.415 672.939 938.675 677.524 938.43L683.724 938.11C696.894 937.454 705.382 937.211 710.622 937.374L716.497 937.597C801.433 940.706 867.717 936.459 910.361 926.448C929.814 921.881 943.73 916.218 951.513 909.773C959.942 902.794 961.397 894.394 955.148 886.976C935.653 863.833 903.658 850.756 851.964 843.787L849.293 843.433C812.259 838.629 767.441 836.694 690.717 836.209L691.137 836.181C693.045 836.052 694.548 834.504 694.622 832.594L700.173 676.897C700.329 676.9 700.49 676.896 700.657 676.885C707.909 676.386 712.82 671.904 721.768 655.045L722.832 653.018L724.05 650.66C726.231 646.632 732.025 640.376 736.991 635.014L736.992 635.013C740.251 631.493 743.154 628.359 744.444 626.493C747.12 627.017 751.007 627.427 756.105 627.725L756.743 627.76L752.697 637.585L752.62 637.794C752.114 639.333 752.933 641.017 754.491 641.553C807.873 659.912 836.894 645.583 844.39 607.007C855.081 551.986 826.148 524.341 759.474 525.046L760.527 489.827C764.625 489.249 768.46 487.599 771.899 484.807C781.633 476.908 787.309 460.537 788.429 435.747C792.235 351.525 767.652 298.5 714.508 277.538L712.7 276.842L712.529 276.367C711.594 273.719 710.967 271.574 710.648 269.96L710.58 269.597C710.246 267.704 710.246 264.54 710.619 260.211C710.666 259.672 710.583 259.152 710.396 258.681C723.487 248.089 736.264 229.061 742.5 209.381L742.658 209.435C742.723 209.458 742.79 209.481 742.86 209.506L745.732 210.527C747.618 211.161 749.195 211.569 750.81 211.782C759.664 212.944 765.052 207.174 765.052 193.782C765.052 188.72 762.616 185.218 758.06 184.42C755.081 183.898 751.339 184.588 746.694 186.398C748.91 157.29 742.091 136.469 728.189 123.456C722.952 118.554 716.823 114.963 710.461 112.643C716.375 111.061 722.302 108.383 726.909 104.72C737.479 96.314 740.813 83.6717 734.749 67.253L755.363 62.6534L755.528 62.5961C756.221 62.3099 756.394 60.5928 756.394 59.3101C756.394 58.0274 755.341 56.558 754.547 56.7836L733.456 64.0472C726.673 48.987 709.578 41.5609 691.892 44.7155ZM659.724 840.579L660.735 840.58C665.592 840.589 670.335 840.609 674.968 840.64C674.611 844.705 674.525 849.657 674.879 853.282H660.792C660.656 850.382 660.292 845.018 659.724 840.579ZM655.593 840.576C655.271 843.142 655.01 846.036 654.775 848.637C654.59 850.68 654.422 852.543 654.254 853.923C654.138 854.014 654.028 854.114 653.925 854.223C646.05 862.589 637.902 868.034 629.483 870.616L628.111 871.026C620.912 873.13 607.429 876.449 607.696 876.372C601.821 878.048 598.975 879.978 597.975 884.007C596.329 890.642 603.043 893.553 620.456 893.667L621.782 893.67C624.641 893.666 627.165 893.376 632.722 892.497L637.045 891.806C641.404 891.129 643.984 890.839 646.347 890.816L647.369 890.823C648.61 890.855 649.89 890.983 652.691 891.341L656.113 891.786C658.094 892.04 659.493 892.195 660.972 892.317C667.093 892.823 671.769 892.399 675.685 890.52C685.821 885.658 687.054 873.563 680.42 855.254C680.412 855.233 680.404 855.211 680.396 855.19C680.43 854.986 680.448 854.777 680.448 854.564V840.683C765.069 841.429 812.215 845.974 850.964 851.199L853.943 851.61C902.203 858.444 931.733 870.789 949.428 891.794C956.57 900.273 943.686 910.941 908.651 919.166C866.321 929.104 799.745 933.295 714.17 930.025L711.571 929.923C705.446 929.68 695.14 930.009 678.064 930.912L662.363 931.793C656.388 932.135 649.51 932.531 643.007 932.906C633.291 933.466 624.411 933.978 620.631 934.188L611.588 934.683C577.42 936.52 548.805 937.686 521.088 938.217L517.477 938.283C454.567 939.364 405.139 936.802 370.9 929.535C331.147 921.097 312.239 907.265 320.83 886.896C330.737 863.408 356.425 847.599 395.976 841.834L397.179 841.662C409 839.996 422.346 840.256 437.98 840.562C445.759 840.714 454.104 840.877 463.11 840.819L470.829 840.79C483.355 840.771 566.854 839.558 566.854 839.558C596.087 840.206 616.895 840.515 639.114 840.561L655.593 840.576ZM705.357 262.323C700.387 265.48 695.488 267.272 691.002 267.272C687.48 267.272 683.699 265.982 679.823 263.649C679.959 264.991 679.924 266.23 679.71 267.374C679.252 269.817 677.809 274.146 675.412 277.53C675.346 277.623 675.275 277.713 675.2 277.799C678.411 279.619 683.377 281.509 690.234 280.549C697.786 279.491 701.96 276.807 704.495 274.721C704.101 270.713 704.607 265.96 705.357 262.323ZM705.32 278.731C702.185 282.831 696.901 287.28 690.234 287.28C680.187 287.28 673.587 284.787 671.442 279.498C615.876 297.539 591.391 347.728 603.951 434.171L604.327 436.701L604.531 437.563C612.239 469.572 630.422 483.633 648.326 481.439L648.875 481.367C664.906 479.114 680.532 463.683 684.714 446.098L685.334 443.452C688.454 429.878 690.349 417.879 690.349 408.018L690.339 403.926C690.235 382.443 689.315 366.543 688.16 359.531L688.077 359.053L687.949 359.4C687.461 360.721 686.939 362.339 686.39 364.246L686.225 364.827C683.7 373.784 680.736 388.344 677.367 408.571C674.89 423.438 635.127 442.099 634.532 440.338C634.346 439.789 637.604 437.545 642.236 434.355L642.24 434.352L642.259 434.339C644.063 433.097 646.075 431.711 648.172 430.227C648.098 430.089 648.023 429.942 647.946 429.787C642.086 418.036 638.478 407.726 637.144 398.814C635.825 390.003 638.902 354.549 640.857 354.559L641.103 354.568C642.089 354.637 641.872 359.232 641.551 366.042C641.201 373.465 640.726 383.521 641.549 393.219C642.443 403.75 647.112 414.357 650.355 421.726C651.251 423.76 652.038 425.548 652.607 427.019C661.178 420.66 669.768 413.22 670.726 407.465L671.491 402.932C674.521 385.187 677.223 372.093 679.597 363.53L679.745 363.001C681.046 358.388 682.259 355.092 683.457 352.996C685.34 349.702 688.192 347.987 691.189 350.371C694.519 353.019 696.184 364.41 696.797 385.177C697.306 375.875 698.153 368.346 699.3 362.707C700.259 357.995 701.427 354.584 702.883 352.427C704.951 349.365 708.185 348.32 711.125 350.377L711.323 350.522C717.64 355.358 721.898 378.813 722.147 409.316L722.159 411.868L722.22 412.224C726.077 426.803 734.072 435.302 741.327 440.393C756.129 416.136 747.513 371.201 743.859 352.14C742.806 346.647 742.164 343.303 742.614 343.222C744.647 342.854 746.593 344.204 746.96 346.236C751.638 372.099 754.046 391.221 754.177 403.695C754.309 416.317 752.195 429.619 747.85 443.595C747.787 443.797 747.709 443.99 747.616 444.173C749.829 445.31 751.772 446.132 753.238 446.752C755.131 447.553 756.228 448.017 756.086 448.389C755.422 450.125 728.594 450.125 715.471 412.699C715.425 412.569 715.426 412.382 715.426 412.214L715.426 412.156C715.426 396.545 714.357 382.625 712.479 372.005C711.624 367.17 710.624 363.175 709.557 360.242L709.414 359.857C708.938 358.6 708.47 357.615 708.069 356.933L708.052 356.903L707.969 357.068C707.265 358.52 706.542 360.877 705.897 364.049L705.792 364.577C705.465 366.251 705.057 368.106 704.611 370.138C702.686 378.904 700.039 390.959 699.978 405.982L699.974 408.224C699.974 434.431 718.397 466.164 739.341 478.597C761.103 491.517 779.744 478.818 781.704 435.443C785.468 352.154 762.469 296.346 708.928 282.625C707.179 282.177 706.029 280.73 705.32 278.731ZM696.723 416.252C695.961 425.554 694.018 436.077 691.264 447.656C686.463 467.837 668.701 485.378 649.812 488.033C646.549 488.492 643.368 488.519 640.289 488.117C640.479 490.864 640.696 494.823 640.934 499.817C641.608 499.723 642.315 499.811 642.981 500.11C647.91 502.326 675.189 505.388 698.888 505.862L700.648 505.893C728.838 506.316 749.026 503.183 752.817 497.43L753.046 489.75C748.483 489.062 743.716 487.247 738.896 484.385C718.046 472.007 699.893 442.912 696.723 416.252ZM624.431 196.705C623.847 187.988 630.908 188.56 636.118 189.554C637.229 195.076 638.773 200.652 640.661 206.146L640.396 206.138C634.608 205.978 625.034 205.712 624.431 196.705ZM746.279 190.966C746.173 191.973 746.057 192.989 745.93 194.015C745.472 197.724 744.718 201.483 743.712 205.239C750.456 206.037 761.749 206.478 759.64 191.499C758.818 185.665 751.299 188.829 746.279 190.966ZM689.995 109.518C692.873 109.347 695.855 109.449 698.873 109.828C706.514 109.735 717.946 106.249 723.184 100.036C743.733 75.6629 715.241 48.0499 693.111 51.6191C676.678 54.2695 661.171 65.8087 658.703 84.2702C657.518 93.1382 663.309 107.261 689.995 109.518ZM646.044 639.16C649.169 730.833 652.533 829.524 654.052 832.166C654.309 832.628 658.209 832.664 661.302 832.693L661.307 832.694H661.321C662.133 832.701 662.888 832.708 663.506 832.723L665.171 832.748L667.061 832.75C671.641 832.728 677.416 832.514 684.376 832.107L687.277 831.93L698.714 559.383C698.4 553.184 692.68 546.098 688.835 541.334C686.546 538.498 684.921 536.484 685.495 535.971C687.015 534.612 698.904 547.942 701.096 552.656C701.136 552.817 701.183 553.031 701.236 553.292C702.585 549.755 704.486 546.044 706.959 542.187C707.85 540.796 719.163 525.104 711.092 541.283C693.81 575.927 713.386 590.007 747.556 590.131L747.683 590.132L747.698 590.132C747.982 590.135 748.191 590.137 748.658 590.077C761.963 588.386 776.402 589.167 787.776 590.651C798.954 592.109 818.28 602.994 796.406 609.14C791.179 610.608 782.781 609.721 773.084 607.614L770.456 607.178L755.055 638.33L757.716 638.905C804.39 653.744 831.458 639.897 838.308 606.903L838.516 605.865C848.287 555.581 827.314 524.46 759.392 527.781L759.304 530.734C759.241 532.798 757.517 534.421 755.452 534.359C753.388 534.296 751.765 532.572 751.827 530.508L751.894 528.267C728.111 530.012 743.687 527.026 751.971 525.695L752.534 506.9C742.74 511.883 724.695 513.741 700.706 513.375L698.738 513.34C675.496 512.875 649.491 510.087 641.281 507.444C642.524 535.897 644.244 586.361 646.044 639.152L646.044 639.16ZM763.796 610.631L758.245 624.111C754.398 623.526 751.746 622.845 749.755 622.334C749.096 622.165 748.509 622.014 747.976 621.892C747.252 616.535 747.271 612.65 747.946 610.358C748.534 608.365 749.383 607.241 750.49 606.735C752.875 607.515 755.683 608.363 758.914 609.28L761.344 609.961L763.796 610.631ZM742.918 622.266C743.211 622.074 743.521 621.929 743.839 621.828C743.033 617.516 743.027 610.957 743.702 608.666C744.162 607.107 744.552 605.88 745.077 604.89C744.307 604.626 743.138 604.028 741.697 603.29C735.07 599.898 722.714 593.575 717.273 603.497C708.091 620.241 700.026 672.843 702.373 672.858C705.712 672.879 714.2 661.007 719.787 650.464L720.034 649.993L721.475 647.189C725.859 638.685 732.867 628.86 742.918 622.266ZM769.124 603.867C767.926 603.656 766.742 604.19 766.097 605.179C765.843 605.024 765.56 604.905 765.255 604.829L744.54 599.715L744.084 599.455C728.333 590.553 718.148 591.308 711.041 601.224C708.521 604.74 707.259 609.161 706.652 615.027L706.579 615.768L706.492 616.78C706.411 617.796 706.347 618.847 706.282 620.143L706.029 625.552L705.982 626.372C705.903 627.645 705.825 628.475 705.712 629.256L705.64 629.721L705.41 630.978L705.27 631.626C705.19 631.974 705.093 632.375 704.966 632.872L704.598 634.272L702.351 642.38C701.95 644.232 701.572 645.975 701.217 647.609L703.625 580.075C711.192 589.468 727.271 594.415 750.245 592.987L752.137 592.88C753.027 592.835 753.925 592.787 754.83 592.738L754.857 592.737L755.023 592.728L755.057 592.726C765.062 592.188 775.919 591.604 785.755 593.789C810.283 599.237 800.251 604.244 798.091 605.322L797.962 605.387L797.896 605.42L797.615 605.554C794.16 607.09 786.052 606.779 770.734 604.148L769.124 603.867ZM608.519 880.871L609.336 880.631C608.941 880.751 638.525 876.562 654.36 860.092C657.348 856.983 675.484 859.265 675.484 859.265L675.502 859.312C682.329 870.616 683.314 882.367 674.749 885.833C671.726 887.057 666.619 888.276 661.464 887.85L660.714 887.784L659.658 887.679C658.932 887.601 658.151 887.509 657.235 887.393L652.139 886.737C649.458 886.409 648.273 886.327 646.654 886.327C643.824 886.327 630.223 888.326 630.223 888.326C626.072 888.962 623.958 889.18 621.773 889.183C613.03 889.195 607.524 887.046 604.816 885.944L604.558 885.833C604.315 885.723 604.118 885.617 603.963 885.515L603.796 885.397L603.783 885.448C604.097 884.184 605.156 881.894 608.519 880.871ZM740.867 194.015C741.722 187.091 742.004 180.619 741.778 174.603C731.412 178.719 721.036 177.963 712.217 172.771C704.972 168.505 698.447 161.725 692.613 152.468L692.4 152.125L692.207 152.498C687.495 161.441 681.417 168.584 673.975 173.891L673.226 174.415C663.887 180.843 652.93 183.712 640.463 183.03L640.513 183.252C647.621 214.542 672.33 262.75 691.41 263.906C698.708 264.348 709.299 252.561 719.118 239.783C729.721 225.985 738.92 209.781 740.867 194.015ZM723.589 128.371C732.925 137.11 739.516 150.46 741.342 168.307C741.231 168.342 741.122 168.383 741.014 168.432C731.85 172.54 722.867 173.594 715.254 169.111C707.713 164.671 700.861 155.42 694.744 144.291C693.545 142.108 690.36 142.261 689.374 144.547C689.179 145.002 688.965 145.513 688.73 146.074C686.027 152.539 680.592 165.535 668.803 172.395C660.22 177.389 647.557 178.653 641.303 179.278L641.296 179.279L641.286 179.28C640.729 179.335 640.222 179.386 639.774 179.434C639.542 177.978 639.366 176.53 639.245 175.094C646.39 173.801 661.405 168.856 667.442 165.064C675.099 160.254 677.444 155.346 681.343 147.185C682.057 145.689 682.824 144.084 683.685 142.35C684.429 140.854 686.192 130.879 682.012 138.464C681.758 138.925 681.489 139.428 681.2 139.968L681.198 139.971L681.197 139.973L681.197 139.975C676.848 148.103 668.014 164.615 639.07 172.147C638.508 155.389 645.282 140.373 655.188 130.663C664.439 121.594 678.431 115.597 689.062 114.566C700.246 113.481 713.767 119.178 723.589 128.371Z" fill="#00160A"/>
<path fill-rule="evenodd" clip-rule="evenodd" d="M420.65 651.088C418.855 631.998 409.951 613.1 395.84 600.126C385.566 590.678 370.842 582.766 357.102 589.532C335.964 602.12 330.287 627.955 332.419 651.088C335.061 679.76 348.484 697.44 374.27 708C388.799 713.948 398.458 721.796 406.345 735.471C412.654 746.406 416.332 760.099 424.26 770.012C436.113 784.83 450.945 791.418 469.228 788.956C472.851 788.956 484.524 799.801 488.172 806.37C497.698 823.525 505.875 841.638 509.628 861.007C510.723 866.66 509.948 887.806 513.815 891.887C520.886 899.351 518.815 884.977 518.392 880.638C514.88 844.71 501.953 814.1 483.184 783.895C488.95 776.381 489.782 757.257 487.971 751.224C483.184 732.521 424.264 689.521 420.65 651.088Z" fill="white"/>
<path fill-rule="evenodd" clip-rule="evenodd" d="M355.14 585.287L355.036 585.344C335.452 597.033 328.289 613.368 329.695 651.286C331.173 691.128 345.624 698.189 371.567 709.091L372.357 709.419C386.921 715.394 396.106 723.184 403.619 736.24L404.221 737.305C405.534 739.671 406.707 742.087 408.361 745.776L411.323 752.496C415.321 761.514 417.868 766.257 421.614 770.952C433.91 786.358 449.289 792.939 467.831 790.437L468.008 790.402L468.179 790.347C471.052 789.217 480.821 799.152 485.217 807.085C495.895 826.356 502.79 843.163 506.223 860.077L506.456 861.257C506.678 862.403 506.823 864.164 506.993 867.511L507.227 872.467C507.283 873.624 507.335 874.628 507.391 875.579L507.424 876.144C507.982 885.365 508.898 890.629 511.014 892.867C513.841 895.858 516.451 896.422 517.881 893.824C518.695 892.346 518.885 889.961 518.71 886.603L518.641 885.483C518.599 884.909 518.549 884.313 518.488 883.675L518.004 878.965C514.576 846.31 503.42 816.679 483.723 784.569L483.34 783.947L483.584 783.558C488.298 775.776 490.017 758.351 487.758 750.81C483.895 737.927 476.256 727.499 462.355 713.751L459.935 711.366C436.43 688.118 428.546 676.126 422.086 650.538L419.863 641.685L419.807 641.469C414.501 621.014 408.932 608.839 398.402 599.136C385.768 587.492 368.008 578.938 355.14 585.287ZM396.375 601.335C406.035 610.237 412.865 621.485 417.88 640.22L418.958 644.365L420.459 650.381C422.086 666.509 427.114 685.508 457.833 713.495L459.466 715.104C473.539 728.916 481.139 739.147 484.892 751.669C487.026 758.791 485.073 776.836 480.363 782.987C479.985 783.48 479.952 784.156 480.279 784.684C500.311 816.991 511.595 846.601 515.027 879.255L515.448 883.323L515.565 884.556C515.617 885.145 515.66 885.698 515.693 886.231L515.723 886.759C515.869 889.551 515.708 891.57 515.261 892.382L515.239 892.435L515.292 892.451C514.896 892.365 514.163 891.844 513.188 890.812C511.834 889.38 510.958 884.513 510.45 876.61L510.344 874.833L509.954 866.848C509.795 863.82 509.652 862.121 509.427 860.873L509.393 860.689C505.977 843.022 498.899 825.607 487.834 805.636L487.591 805.204C482.417 796.112 472.366 785.936 467.321 787.481L467.29 787.49L467.431 787.473C449.958 789.831 435.607 783.69 423.952 769.086C420.307 764.518 417.809 759.801 413.708 750.493L411.594 745.684C409.364 740.659 407.985 737.828 406.211 734.748C398.501 721.35 389.008 713.173 374.314 706.993L373.493 706.652C348.059 696.213 335.235 678.868 332.674 651.012L332.601 650.181C330.441 624.454 338.163 602.266 355.99 591.255L356.515 590.934L356.464 590.961C368.016 585.26 384.554 590.44 396.375 601.335Z" fill="#00160A"/>
<path fill-rule="evenodd" clip-rule="evenodd" d="M503.227 789.689C511.862 791.018 519.386 785.948 522.283 777.5C524.785 770.198 525.03 761.704 527.873 754.799C529.831 750.044 532.946 746.005 536.755 742.591C546.802 733.585 557.292 731.332 560.287 716.385C562.635 704.668 559.72 680.785 543.409 683.166C532.062 684.83 522.892 700.033 517.607 709.62C511.067 721.484 504.965 734.198 501.529 747.23C495.868 768.698 495.103 792.525 495.033 814.512C495.024 817.161 494.473 849.524 498.247 848.994C501.985 848.468 499.618 814.875 499.937 807.918" fill="white"/>
<path fill-rule="evenodd" clip-rule="evenodd" d="M379.83 609.855C377.904 610.843 378.281 614.021 380.586 619.692C382.894 625.375 386.298 629.653 389.776 631.599C393.334 633.59 396.583 632.769 397.481 629.278C398.291 626.13 392.75 618.25 386.867 613.039C383.805 610.328 381.414 609.043 379.83 609.855ZM385.541 614.537C390.263 620.246 396.083 627.686 395.544 629.78C395.017 631.829 393.279 632.267 390.753 630.854C387.707 629.15 384.041 624.312 381.892 619.023L381.576 618.228C379.611 614.439 379.617 611.02 380.742 610.635C381.814 610.268 384.137 612.839 385.541 614.537ZM528.557 698.782C527.771 696.635 530.132 693.991 534.486 692.087C539.161 690.041 542.202 689.894 542.187 692.44C542.176 694.16 539.856 696.563 536.317 698.724C532.729 700.914 529.38 701.032 528.557 698.782ZM540.158 692.575C540.077 692.564 539.978 692.557 539.855 692.558L539.724 692.562C539.594 692.568 539.434 692.563 539.241 692.558C538.042 692.524 535.576 692.454 530.963 694.742C529.974 695.232 529.342 697.84 529.435 698.096C529.661 698.713 532.609 699.644 535.275 698.017C536.386 697.338 537.36 696.141 538.153 695.167C538.487 694.757 538.789 694.387 539.055 694.112C539.653 693.492 540.018 692.956 540.14 692.63L540.158 692.575ZM532.393 718.42L531.909 719.204C529.795 722.653 528.516 725.097 528.003 726.641C527.316 728.705 528.051 730.163 529.961 729.539C531.703 728.969 535.06 726.149 539.234 722.03C542.611 718.698 544.301 713.633 543.005 711.207C541.245 707.91 537.136 710.793 532.393 718.42ZM541.241 711.149C542.04 712.646 540.645 717.828 537.829 720.606L536.884 721.529C536.15 722.238 535.365 723.033 534.585 723.822L534.584 723.823L534.583 723.824C532.187 726.248 529.853 728.611 529.293 728.198C528.64 727.718 530.766 723.216 533.091 719.477C535.334 715.871 538.273 712.543 539.76 711.499C540.727 710.821 541.073 710.835 541.241 711.149ZM506.244 763.219C505.677 766.991 506.184 769.806 508.089 770.196C510.046 770.597 512.126 767.99 514.445 762.671C516.658 757.594 516.079 752.784 513.183 752.055C510.196 751.303 507.482 755.467 506.304 762.835L506.244 763.219ZM512.695 753.994C513.988 754.32 514.659 757.712 512.986 762.066C511.671 765.486 508.089 773.609 507.141 767.25C506.997 766.282 506.996 765.017 507.222 763.517L507.343 762.76C508.374 756.701 511.372 753.661 512.695 753.994ZM348.311 667.04C343.414 661.697 340.514 655.04 342.923 652.128C345.795 648.658 359.048 660.663 358.875 666.661C358.774 670.161 357.251 671.957 354.727 671.497C352.856 671.157 350.575 669.509 348.311 667.04ZM344.457 652.413L344.387 652.505C343.075 654.407 344.609 661.132 348.786 665.688C350.78 667.863 353.75 670.287 355.085 670.53C356.2 670.733 356.806 670.018 356.876 667.603C356.94 665.385 354.471 660.744 350.856 657.469C350.456 657.107 349.978 656.619 349.46 656.09L349.46 656.09L349.46 656.09C347.889 654.485 345.945 652.5 344.671 652.484C344.469 652.481 344.425 652.46 344.457 652.413ZM344.457 652.413L344.464 652.403C344.461 652.407 344.459 652.41 344.457 652.413ZM432.025 758.388C433.142 763.244 435.348 766.404 438.336 768.137C440.361 769.312 442.242 769.656 444.397 769.656C449.021 769.656 451.167 767.597 450.362 764.251C449.758 761.741 447.436 758.624 444.343 755.906C441.259 753.196 437.95 751.358 435.546 751.208C432.26 751.003 430.936 753.657 432.025 758.388ZM435.422 753.204C437.282 753.32 440.241 754.964 443.023 757.408C445.835 759.879 447.93 762.692 448.417 764.718C448.884 766.658 447.844 768.656 444.397 768.656C442.563 768.656 441 768.37 439.339 767.407C436.848 765.962 433.971 762.273 432.974 757.94C432.145 754.336 433.761 753.101 435.422 753.204ZM442.081 726.223C437.941 722.783 435.961 719.169 437.153 717.18C438.511 714.914 442.068 716.388 445.671 720.347C447.925 722.823 451.082 727.108 452.013 729.225C452.393 730.087 452.521 730.73 452.231 731.316C451.792 732.204 450.918 732.228 449.896 731.809C448.592 731.274 446.386 729.742 443.126 727.084L442.081 726.223ZM440.032 718.371C439.594 718.19 439.245 718.125 439.017 718.152C438.911 718.164 438.885 718.18 438.868 718.208C438.843 718.25 438.798 718.306 438.742 718.374L438.742 718.374C438.462 718.718 437.923 719.379 438.391 720.232C439.126 721.574 441.471 724.117 443.359 725.685C445.879 727.78 448.521 729.25 450.094 730.124C450.388 730.288 450.645 730.431 450.856 730.553L450.99 730.628L450.842 730.35C449.755 728.366 446.284 724.04 444.414 721.94L444.192 721.693C442.621 719.967 441.172 718.844 440.032 718.371ZM378.828 690.261C377.635 692.25 379.616 695.864 383.755 699.304L384.801 700.165C388.061 702.823 390.267 704.355 391.571 704.889C392.593 705.308 393.467 705.284 393.906 704.397C394.196 703.81 394.068 703.168 393.688 702.305C392.756 700.189 389.599 695.904 387.346 693.427C383.743 689.468 380.186 687.995 378.828 690.261ZM380.692 691.232C380.92 691.205 381.269 691.27 381.707 691.452C382.847 691.924 384.296 693.048 385.867 694.774L386.089 695.021C387.959 697.121 390.43 701.446 391.517 703.431L391.664 703.709L391.531 703.634C390.189 702.858 388.026 701.252 385.034 698.766C383.146 697.197 380.801 694.654 380.065 693.312C379.598 692.459 380.137 691.798 380.417 691.455C380.472 691.387 380.518 691.331 380.543 691.289C380.56 691.261 380.586 691.245 380.692 691.232ZM413.666 690.331C409.526 686.891 407.546 683.277 408.738 681.288C410.096 679.022 413.653 680.495 417.256 684.454C419.51 686.931 422.667 691.216 423.598 693.332C423.978 694.195 424.107 694.837 423.816 695.424C423.378 696.311 422.503 696.335 421.482 695.916C420.177 695.382 417.971 693.849 414.711 691.192L413.666 690.331ZM411.617 682.479C411.179 682.297 410.83 682.232 410.603 682.259C410.496 682.272 410.47 682.288 410.453 682.316C410.449 682.324 410.444 682.332 410.438 682.341C410.267 682.624 409.76 683.464 410.302 684.454C411.038 685.796 413.188 689.194 413.944 689.793C416.189 691.57 419.005 692.948 420.871 693.861C421.54 694.188 422.087 694.456 422.442 694.661L422.575 694.736L422.427 694.457C421.34 692.473 417.869 688.148 415.999 686.048L415.777 685.801C414.206 684.075 412.758 682.951 411.617 682.479Z" fill="#61B379"/>
<path fill-rule="evenodd" clip-rule="evenodd" d="M543.653 681.185C552.045 679.975 559.464 684.781 562.548 693.57C564.971 700.474 563.927 709.606 562.551 716.386C560.787 725.082 557.111 729.73 549.016 735.485L544.151 738.867C542.471 740.053 541.092 741.083 539.774 742.158C539.201 742.625 538.647 743.095 538.109 743.572C534.193 747.039 531.272 750.945 529.455 755.304L529.207 755.916C528.244 758.359 527.635 760.781 526.756 765.3L526.002 769.253C525.237 773.186 524.661 775.555 523.795 778.053C520.468 787.636 513.443 792.712 504.24 791.312C503.41 791.186 500.683 791.39 506.793 790.165C512.902 788.939 518.039 785.371 520.919 777.074C521.73 774.739 522.28 772.473 523.021 768.661L523.779 764.686C524.766 759.617 525.437 757.053 526.645 754.155C528.646 749.356 531.84 745.083 536.082 741.327C536.652 740.822 537.237 740.326 537.841 739.834C539.049 738.849 540.296 737.907 541.75 736.867L543.23 735.826C544.455 734.975 546.324 733.686 546.702 733.421L547.753 732.674C554.913 727.503 559.54 723.437 561.091 715.793C562.362 709.525 560.395 700.937 558.156 694.558C555.504 687 550.831 681.687 544.092 682.659C534.17 684.096 509.538 719.805 502.727 741.666C497.123 759.655 495.7 787.27 496.072 812.063L496.132 815.596L496.123 820.467C496.126 824.414 496.166 827.711 496.271 831.142L496.299 832.003C496.466 836.964 496.755 841.04 497.188 843.973C497.331 844.939 497.488 845.766 497.655 846.44L497.74 846.769L497.787 846.565C497.976 845.661 498.13 844.479 498.247 843.042L498.285 842.553L498.353 841.517C498.54 838.31 498.578 834.208 498.498 829.083L498.428 825.503C498.398 824.187 498.361 822.774 498.314 821.128L498.059 811.669C498.031 810.2 498.033 809.428 498.056 808.71L498.17 805.97C498.252 803.744 498.303 801.431 498.361 797.756L498.447 792.431C498.677 780.257 499.126 774.195 500.59 766.741C500.811 765.616 501.053 764.507 501.315 763.411C505.152 747.414 513.408 735.9 521.396 721.79C523.795 717.553 536.386 711.064 536.501 711.888C536.617 712.711 525.72 717.582 522.413 723.03C515.378 734.619 508.024 748.469 504.274 764.107C504.02 765.162 503.788 766.231 503.575 767.316L503.297 768.781C502.094 775.396 501.697 781.319 501.486 792.518L501.328 801.847C501.288 803.744 501.243 805.255 501.181 806.792L501.089 809.028C501.069 809.854 501.078 810.869 501.131 813.048L501.454 824.864C501.482 826.022 501.505 827.095 501.524 828.167L501.574 831.62C501.717 845.015 501.087 850.553 498.09 850.969C495.744 851.295 494.863 849.034 494.179 844.409C493.753 841.521 493.466 837.655 493.291 832.988L493.26 832.103C493.133 828.319 493.086 824.78 493.083 820.477L493.086 814.831C492.443 789.066 495.424 759.775 501.342 740.779C508.477 717.875 532.143 682.852 543.653 681.185Z" fill="#00160A"/>
<ellipse cx="498.5" cy="863.5" rx="58.5" ry="43.5" fill="white"/>
<ellipse cx="475" cy="863.5" rx="35" ry="43.5" fill="#E7EAEE"/>
<path fill-rule="evenodd" clip-rule="evenodd" d="M556.59 818.525H439.94C438.907 818.525 438.07 819.362 438.07 820.394C438.07 852.344 441.085 872.235 449.097 886.046C458.13 901.619 473.694 909.004 498.265 909.004C522.836 909.004 538.4 901.619 547.433 886.046C555.445 872.235 558.46 852.344 558.46 820.394C558.46 819.362 557.623 818.525 556.59 818.525ZM444.803 822.264H553.221L553.22 822.693C553.077 852.679 553.094 871.415 545.695 884.17C537.395 898.479 521.598 906.761 498.265 906.761C474.932 906.761 460.631 896.984 452.331 882.675L452.052 882.188C444.953 869.613 445.024 852.795 444.813 823.872L444.803 822.264Z" fill="#00160A"/>
</g>
</svg>
